<?xml version="1.0" encoding="utf-8" ?><svg xmlns="http://www.w3.org/2000/svg" xmlns:xlink="http://www.w3.org/1999/xlink" width="1024" height="1024" viewBox="0 0 1024 1024"><path fill="#5ACF5A" transform="scale(2.25551 2.25551)" d="M334.47 57.5554C338.047 57.862 340.243 61.3477 340.739 64.5424C342.135 73.523 343.104 83.0991 344.11 92.1134C346.309 110.761 347.959 129.468 349.059 148.213C350.004 166.475 350.359 185.999 346.755 204.069C344.23 216.725 337.173 233.022 330.287 243.892C308.609 278.115 270.415 299.3 231.839 308.753C213.101 313.312 192.406 315.387 173.371 311.857C169.592 311.156 164.199 309.929 160.997 307.982C153.244 327.516 146.84 347.507 144.329 368.443C143.842 372.751 143.534 377.079 143.406 381.413C143.354 383.644 143.968 390.608 142.19 391.886C132.577 398.796 134.206 381.928 134.257 377.269C134.174 360.267 141.009 335.592 146.691 319.625C148.107 315.648 151.004 307.777 153.117 304.185C139.77 295.043 131.871 286.992 124.375 272.631C107.194 239.719 116.325 201.778 135.415 171.863C141.28 162.672 147.193 156.359 154.903 148.779C169.394 134.692 186.393 123.444 205.023 115.614C214.862 111.387 225.343 108.088 235.523 104.755C255.365 98.2667 275.409 91.959 294.295 82.9705C305.396 77.5917 316.356 71.9936 325.78 63.9129C328.244 61.8006 331.39 58.248 334.47 57.5554ZM156.806 295.896C164.941 280.314 174.476 261.645 184.685 247.393C180.39 239.558 179.048 223.483 181.583 214.605C185.267 201.705 191.786 195.242 203.097 188.727C210.732 184.33 224.03 181.196 232.809 181.703C238.129 177.969 241.502 172.633 245.93 168.135C255.281 158.733 265.227 149.942 275.707 141.817C277.901 140.148 280.366 138.122 282.807 136.911C286.064 135.295 290.687 136.652 289.818 141.011C289.267 143.779 286.771 145.554 284.637 147.111C273.523 155.724 263.052 164.713 253.013 174.577C251.073 176.483 249.392 178.628 247.474 180.547C250.568 180.087 253.681 180.73 256.751 181.156C264.789 182.269 273.246 183.425 279.948 188.404C284.664 191.908 287.235 196.267 288.1 202.078C288.89 207.389 286.745 212.494 283.576 216.665C272.503 231.24 239.438 242.759 222.228 248.946C215.057 251.524 205.174 255.428 197.764 256.422C195.513 256.724 193.397 256.885 191.486 255.377C191.04 255.025 190.632 254.606 190.248 254.187C185.346 263.392 179.245 272.423 174.26 281.669C171.05 287.622 168.254 294.135 164.759 299.866C184.967 308.396 211.325 304.631 232.034 299.263C239.579 297.307 246.727 295.13 253.952 292.193C266.996 287.036 279.355 280.292 290.751 272.114C313.833 255.36 327.642 235.453 335.389 208.068C341.849 185.229 340.774 163.924 339.149 140.574C338.27 127.308 337.073 114.066 335.557 100.857L333.3 80.9289C333.061 78.8114 332.314 73.3169 332.414 71.4636L332.122 71.1839C312.19 88.3802 279.678 98.714 255.135 107.588C243.432 111.819 231.404 115.344 219.722 119.794C187.111 132.217 156.317 152.173 139.31 183.562C131.652 197.696 126.021 212.579 124.848 228.716C123.314 248.784 129.883 268.63 143.087 283.82C148.092 289.604 151.684 291.38 156.806 295.896ZM194.803 247.078C196.366 246.895 199.359 246.691 200.707 246.364C208.997 244.349 217.719 241.212 225.672 238.26C238.963 233.422 272.121 221.249 278.173 208.123C279.169 205.962 279.446 203.658 278.585 201.4C277.154 197.645 273.605 195.763 270.12 194.289C260.94 190.407 250.251 188.997 240.347 188.796C233.104 192.512 200.341 238.228 194.803 247.078ZM190.861 236.653L191.359 236.615C196.097 230.416 200.311 223.593 205.202 217.25C211.232 209.429 216.184 200.586 223.541 193.617C224.088 193.041 225.825 191.403 225.896 190.718L225.728 190.565C222.613 191.48 219.525 191.935 216.404 192.908C206.492 195.999 198.462 201.263 193.418 210.545C189.933 216.957 189.355 223.462 190.08 230.611C190.258 232.369 190.775 235.112 190.861 236.653Z"/></svg>